<svg width="99" height="100" viewBox="0 0 99 100" fill="none" xmlns="http://www.w3.org/2000/svg">
<g filter="url(#filter0_i_256_294)">
<path d="M93 43.5C96.3137 43.5 99 46.1863 99 49.5C99 52.8137 96.3137 55.5 93 55.5L6 55.5C2.68629 55.5 1.17422e-07 52.8137 2.62268e-07 49.5C4.07115e-07 46.1863 2.68629 43.5 6 43.5L93 43.5Z" fill="url(#paint0_linear_256_294)"/>
<path d="M43 6.5C43 3.18629 45.6863 0.5 49 0.5C52.3137 0.5 55 3.18629 55 6.5V93.5C55 96.8137 52.3137 99.5 49 99.5C45.6863 99.5 43 96.8137 43 93.5V6.5Z" fill="url(#paint1_linear_256_294)"/>
</g>
<defs>
<filter id="filter0_i_256_294" x="0" y="0.5" width="99" height="103" filterUnits="userSpaceOnUse" color-interpolation-filters="sRGB">
<feFlood flood-opacity="0" result="BackgroundImageFix"/>
<feBlend mode="normal" in="SourceGraphic" in2="BackgroundImageFix" result="shape"/>
<feColorMatrix in="SourceAlpha" type="matrix" values="0 0 0 0 0 0 0 0 0 0 0 0 0 0 0 0 0 0 127 0" result="hardAlpha"/>
<feOffset dy="4"/>
<feGaussianBlur stdDeviation="2"/>
<feComposite in2="hardAlpha" operator="arithmetic" k2="-1" k3="1"/>
<feColorMatrix type="matrix" values="0 0 0 0 0 0 0 0 0 0 0 0 0 0 0 0 0 0 0.25 0"/>
<feBlend mode="normal" in2="shape" result="effect1_innerShadow_256_294"/>
</filter>
<linearGradient id="paint0_linear_256_294" x1="49" y1="0.5" x2="49" y2="99.5" gradientUnits="userSpaceOnUse">
<stop stop-color="#8ED5E7"/>
<stop offset="1" stop-color="#81CDE0"/>
</linearGradient>
<linearGradient id="paint1_linear_256_294" x1="49" y1="0.5" x2="49" y2="99.5" gradientUnits="userSpaceOnUse">
<stop stop-color="#8ED5E7"/>
<stop offset="1" stop-color="#81CDE0"/>
</linearGradient>
</defs>
</svg>
